<svg width="1400" height="900" viewBox="0 0 1400 900" fill="none" xmlns="http://www.w3.org/2000/svg">
  <rect width="1400" height="900" rx="24" fill="#16171D"/>
  <rect x="2" y="2" width="1396" height="896" rx="22" stroke="#2C3AA7" stroke-width="4"/>
  <rect x="0" y="0" width="1400" height="72" rx="24" fill="#26262D"/>
  <text x="700" y="43" text-anchor="middle" fill="#E6E6EA" font-family="Cantarell, sans-serif" font-size="33" font-weight="700">feterminal</text>
  <g fill="#8D8E98">
    <rect x="1188" y="26" width="18" height="4" rx="2"/>
    <rect x="1188" y="34" width="18" height="4" rx="2"/>
    <rect x="1188" y="42" width="18" height="4" rx="2"/>
  </g>
  <rect x="1222" y="16" width="84" height="40" rx="10" fill="#3B3D44" stroke="#B389D8" stroke-width="2"/>
  <text x="1264" y="42" text-anchor="middle" fill="#E6E6EA" font-family="Cantarell, sans-serif" font-size="23" font-weight="700">Sidebar</text>
  <g fill="#3A3B45">
    <circle cx="1328" cy="36" r="18"/>
    <circle cx="1378" cy="36" r="18"/>
  </g>
  <g fill="#8D8E98">
    <rect x="1320" y="35" width="16" height="2" rx="1"/>
    <rect x="1371" y="29" width="14" height="14" rx="1.5" stroke="#8D8E98" stroke-width="2" fill="none"/>
  </g>
  <circle cx="32" cy="36" r="11" stroke="#E6E6EA" stroke-width="2"/>
  <path d="M32 30V42M26 36H38" stroke="#E6E6EA" stroke-width="2" stroke-linecap="round"/>

  <rect x="12" y="72" width="1032" height="792" fill="#000000"/>

  <rect x="10" y="84" width="520" height="58" rx="2" stroke="#C47AE6" stroke-width="2"/>
  <text x="26" y="111" fill="#FF00FF" font-family="'DejaVu Sans Mono', monospace" font-size="28" font-weight="700">feterminal</text>
  <text x="26" y="129" fill="#C9C9D1" font-family="'DejaVu Sans Mono', monospace" font-size="16">Right-side terminals, Webdev processes, and project files</text>

  <g font-family="'DejaVu Sans Mono', monospace">
    <text x="26" y="184" fill="#D8D8D8" font-size="17" font-weight="700">Sidebar</text>
    <text x="140" y="184" fill="#D8D8D8" font-size="17">Terminal tabs and Webdev tree live on the right</text>
    <text x="26" y="209" fill="#D8D8D8" font-size="17" font-weight="700">Settings</text>
    <text x="140" y="209" fill="#D8D8D8" font-size="17">Use the Webdev gear button to edit commands</text>
    <text x="26" y="234" fill="#D8D8D8" font-size="17" font-weight="700">Project file</text>
    <text x="180" y="234" fill="#D8D8D8" font-size="17">.feterminal loads project-specific commands</text>

    <text x="26" y="286" fill="#68C7FF" font-size="17" font-weight="700">GitHub</text>
    <text x="150" y="286" fill="#D8D8D8" font-size="17">https://github.com/Poppolouse/feterminal</text>
    <text x="26" y="311" fill="#68C7FF" font-size="17" font-weight="700">Release</text>
    <text x="150" y="311" fill="#D8D8D8" font-size="17">v0.2.0</text>

    <text x="10" y="358" fill="#00FF5B" font-size="17" font-weight="700">poppolouse@bazzite</text>
    <text x="210" y="358" fill="#DADADA" font-size="17">:~$</text>
  </g>

  <rect x="0" y="862" width="1400" height="38" fill="#2B2C34"/>
  <text x="18" y="887" fill="#9A9AA0" font-family="Cantarell, sans-serif" font-size="24">Ready</text>

  <rect x="1043" y="72" width="357" height="790" fill="#24252C"/>
  <path d="M1043 72H1400V862H1043" stroke="#34363E"/>
  <text x="1064" y="104" fill="#F0F0F2" font-family="Cantarell, sans-serif" font-size="27" font-weight="700">Terminals</text>
  <text x="1368" y="104" fill="#F0F0F2" font-family="Cantarell, sans-serif" font-size="36" font-weight="700">+</text>
  <rect x="1054" y="126" width="326" height="54" rx="12" fill="#5C4468"/>
  <rect x="1068" y="144" width="12" height="12" stroke="#F3F3F5" stroke-width="1.5"/>
  <path d="M1072 149L1076 153" stroke="#F3F3F5" stroke-width="1.5"/>
  <text x="1090" y="158" fill="#EAEAF0" font-family="Cantarell, sans-serif" font-size="23">Terminal 1</text>
  <text x="1338" y="158" fill="#EAEAF0" font-family="Cantarell, sans-serif" font-size="28">×</text>

  <path d="M1052 192H1380" stroke="#3A3C45"/>
  <text x="1064" y="226" fill="#F0F0F2" font-family="Cantarell, sans-serif" font-size="27" font-weight="700">Webdev</text>
  <text x="1356" y="226" fill="#D0D3DE" font-family="Cantarell, sans-serif" font-size="20">⚙</text>

  <g font-family="Cantarell, sans-serif" fill="#F1F1F4">
    <text x="1064" y="276" font-size="24">⌄ Backend</text>
    <text x="1068" y="318" font-size="18">🖥 Backend</text>
    <text x="1306" y="318" font-size="16" fill="#B8BAC2">idle</text>
    <text x="1348" y="318" font-size="20">▶</text>
    <text x="1380" y="318" font-size="18">■</text>

    <text x="1064" y="370" font-size="24">⌄ Frontend</text>
    <text x="1068" y="412" font-size="18">▣ Frontend</text>
    <text x="1306" y="412" font-size="16" fill="#B8BAC2">idle</text>
    <text x="1348" y="412" font-size="20">▶</text>
    <text x="1380" y="412" font-size="18">■</text>

    <text x="1064" y="464" font-size="24">⌄ Workers</text>
    <text x="1068" y="506" font-size="18">⚙ Worker 1</text>
    <text x="1306" y="506" font-size="16" fill="#B8BAC2">idle</text>
    <text x="1348" y="506" font-size="20">▶</text>
    <text x="1380" y="506" font-size="18">■</text>

    <text x="1064" y="558" font-size="24">⌄ AI</text>
  </g>

  <g transform="translate(1068 586)">
    <path d="M11.217 19.384a3.501 3.501 0 0 0 6.783 -1.217v-5.167l-6 -3.35" stroke="#F5F5F5" stroke-width="1.5" stroke-linecap="round" stroke-linejoin="round"/>
    <path d="M5.214 15.014a3.501 3.501 0 0 0 4.446 5.266l4.34 -2.534v-6.946" stroke="#F5F5F5" stroke-width="1.5" stroke-linecap="round" stroke-linejoin="round"/>
    <path d="M6 7.63c-1.391 -.236 -2.787 .395 -3.534 1.689a3.474 3.474 0 0 0 1.271 4.745l4.263 2.514l6 -3.348" stroke="#F5F5F5" stroke-width="1.5" stroke-linecap="round" stroke-linejoin="round"/>
    <path d="M12.783 4.616a3.501 3.501 0 0 0 -6.783 1.217v5.067l6 3.45" stroke="#F5F5F5" stroke-width="1.5" stroke-linecap="round" stroke-linejoin="round"/>
    <path d="M18.786 8.986a3.501 3.501 0 0 0 -4.446 -5.266l-4.34 2.534v6.946" stroke="#F5F5F5" stroke-width="1.5" stroke-linecap="round" stroke-linejoin="round"/>
    <path d="M18 16.302c1.391 .236 2.787 -.395 3.534 -1.689a3.474 3.474 0 0 0 -1.271 -4.745l-4.308 -2.514l-5.955 3.42" stroke="#F5F5F5" stroke-width="1.5" stroke-linecap="round" stroke-linejoin="round"/>
  </g>
  <text x="1098" y="608" fill="#F1F1F4" font-family="Cantarell, sans-serif" font-size="18">Codex</text>
  <text x="1306" y="608" fill="#B8BAC2" font-family="Cantarell, sans-serif" font-size="16">idle</text>
  <text x="1348" y="608" fill="#F1F1F4" font-family="Cantarell, sans-serif" font-size="20">▶</text>
  <text x="1380" y="608" fill="#F1F1F4" font-family="Cantarell, sans-serif" font-size="18">■</text>

  <path d="M1069 634h14l-7-12z" fill="#F5F5F5"/>
  <text x="1098" y="652" fill="#F1F1F4" font-family="Cantarell, sans-serif" font-size="18">Claude Code</text>
  <text x="1306" y="652" fill="#B8BAC2" font-family="Cantarell, sans-serif" font-size="16">idle</text>
  <text x="1348" y="652" fill="#F1F1F4" font-family="Cantarell, sans-serif" font-size="20">▶</text>
  <text x="1380" y="652" fill="#F1F1F4" font-family="Cantarell, sans-serif" font-size="18">■</text>

  <path d="M1070 673c2-4 12-4 14 0c2 4 1 10-7 10s-9-6-7-10Z" fill="#F5F5F5"/>
  <text x="1098" y="696" fill="#F1F1F4" font-family="Cantarell, sans-serif" font-size="18">Copilot</text>
  <text x="1306" y="696" fill="#B8BAC2" font-family="Cantarell, sans-serif" font-size="16">idle</text>
  <text x="1348" y="696" fill="#F1F1F4" font-family="Cantarell, sans-serif" font-size="20">▶</text>
  <text x="1380" y="696" fill="#F1F1F4" font-family="Cantarell, sans-serif" font-size="18">■</text>

  <path d="M1077 718c2 6 6 10 10 12c-4 2-8 6-10 12c-2-6-6-10-10-12c4-2 8-6 10-12Z" fill="#8E75B2"/>
  <text x="1098" y="740" fill="#F1F1F4" font-family="Cantarell, sans-serif" font-size="18">Gemini</text>
  <text x="1306" y="740" fill="#B8BAC2" font-family="Cantarell, sans-serif" font-size="16">idle</text>
  <text x="1348" y="740" fill="#F1F1F4" font-family="Cantarell, sans-serif" font-size="20">▶</text>
  <text x="1380" y="740" fill="#F1F1F4" font-family="Cantarell, sans-serif" font-size="18">■</text>
</svg>
